mastitorrents.com
 
http://mastitorrents.com/forums/index.php

Info -
Cast -


Makarand Anaspure
Jyoti Joshi
Bhushan Kadu
Prakash Dhotre
Sheetal Shukl

General
Name : Batti Gul Powerful
Format : AVI
Format/Info : Audio Video Interleave
Format profile : OpenDML
File size : 688 MiB
Duration : 1h 54mn
Overall bit rate : 837 Kbps
Writing application : AVI-Mux GUI 1.17.8.3


Video
ID : 0
Format : MPEG-4 Visual
Format profile : Advanced Simple@L5
Format settings, BVOP : Yes
Format settings, QPel : No
Format settings, GMC : No warppoints
Format settings, Matrix : Default (H.263)
Codec ID : XVID
Codec ID/Hint : XviD
Duration : 1h 54mn
Bit rate : 770 Kbps
Width : 608 pixels
Height : 256 pixels
Display aspect ratio : 2.35:1
Frame rate : 25.000 fps
Color space : YUV
Chroma subsampling : 4:2:0
Bit depth : 8 bits
Scan type : Progressive
Bits/(Pixel*Frame) : 0.198
Stream size : 633 MiB (92%)
Writing library : XviD 1.2.1


Audio
ID : 1
Format : MPEG Audio
Format version : Version 2
Format profile : Layer 3
Mode : Joint stereo
Mode extension : MS Stereo
Codec ID : 55
Codec ID/Hint : MP3
Duration : 1h 54mn
Bit rate mode : Constant
Bit rate : 64.0 Kbps
Channel(s) : 2 channels
Sampling rate : 24.0 KHz
Stream size : 52.6 MiB (8%)
Alignment : Aligned on interleaves
Interleave, duration : 874 ms (21.84 video frames)
Interleave, preload duration : 216 ms

